<svg width="29" height="29" viewBox="0 0 29 29" fill="none" xmlns="http://www.w3.org/2000/svg">
<path d="M14.5768 7.23441C13.1505 7.23441 11.7562 7.65735 10.5703 8.44977C9.38436 9.24219 8.46004 10.3685 7.91421 11.6862C7.36839 13.004 7.22558 14.454 7.50384 15.8529C7.7821 17.2518 8.46892 18.5368 9.47748 19.5453C10.486 20.5539 11.771 21.2407 13.1699 21.519C14.5688 21.7972 16.0188 21.6544 17.3366 21.1086C18.6543 20.5628 19.7806 19.6384 20.573 18.4525C21.3655 17.2666 21.7884 15.8723 21.7884 14.446C21.7879 12.5335 21.028 10.6995 19.6757 9.34713C18.3233 7.99479 16.4893 7.23486 14.5768 7.23441Z" fill="#272626"/>
<path d="M14.5768 0.0228586C11.7242 0.0228586 8.93564 0.868761 6.56376 2.4536C4.19189 4.03843 2.34324 6.29102 1.25159 8.9265C0.159936 11.562 -0.12569 14.462 0.43083 17.2598C0.987349 20.0576 2.36102 22.6276 4.37813 24.6447C6.39524 26.6618 8.9652 28.0355 11.763 28.592C14.5608 29.1485 17.4608 28.8629 20.0963 27.7712C22.7318 26.6796 24.9844 24.8309 26.5692 22.4591C28.1541 20.0872 29 17.2986 29 14.446C29.0006 12.5517 28.628 10.6759 27.9034 8.9257C27.1788 7.1755 26.1165 5.58524 24.777 4.2458C23.4376 2.90635 21.8473 1.84398 20.0971 1.11938C18.3469 0.394791 16.4711 0.0221854 14.5768 0.0228586ZM14.5768 25.9797C12.2942 25.9807 10.0626 25.3047 8.16426 24.0372C6.26592 22.7697 4.78616 20.9676 3.91218 18.859C3.0382 16.7503 2.80926 14.4298 3.25432 12.191C3.69939 9.95222 4.79846 7.89572 6.41251 6.28167C8.02655 4.66763 10.083 3.56855 12.3218 3.12349C14.5606 2.67842 16.8811 2.90736 18.9898 3.78135C21.0985 4.65533 22.9005 6.13509 24.168 8.03343C25.4356 9.93176 26.1116 12.1634 26.1106 14.446C26.1101 17.5048 24.8948 20.4382 22.7319 22.6011C20.569 24.764 17.6356 25.9793 14.5768 25.9797Z" fill="#272626"/>
</svg>
