<svg width="30" height="30" viewBox="0 0 30 30" fill="none" xmlns="http://www.w3.org/2000/svg">
<path d="M0.507786 10.1949V2.15555C0.507308 1.95113 0.547217 1.74863 0.625224 1.55968C0.703231 1.37073 0.817797 1.19905 0.962343 1.05451C1.10689 0.90996 1.27857 0.795393 1.46752 0.717387C1.65647 0.63938 1.85897 0.599471 2.06338 0.599949H10.1028C10.3091 0.600429 10.5069 0.682625 10.6529 0.828557C10.7988 0.974489 10.881 1.17228 10.8815 1.37866V3.97071C10.881 4.17709 10.7988 4.37488 10.6529 4.52081C10.5069 4.66675 10.3091 4.74894 10.1028 4.74942H4.65726V10.1949C4.65678 10.4013 4.57458 10.5991 4.42865 10.745C4.28272 10.891 4.08493 10.9731 3.87855 10.9736H1.28649C1.08011 10.9731 0.882326 10.891 0.736394 10.745C0.590462 10.5991 0.508266 10.4013 0.507786 10.1949ZM19.1786 1.37866V3.97071C19.1791 4.17709 19.2613 4.37488 19.4072 4.52081C19.5531 4.66675 19.7509 4.74894 19.9573 4.74942H25.4028V10.1949C25.4033 10.4013 25.4855 10.5991 25.6314 10.745C25.7773 10.891 25.9751 10.9731 26.1815 10.9736H28.7754C28.9811 10.9722 29.178 10.8896 29.3231 10.7437C29.4683 10.5979 29.55 10.4007 29.5505 10.1949V2.15555C29.5509 1.95113 29.511 1.74863 29.433 1.55968C29.355 1.37073 29.2404 1.19905 29.0959 1.05451C28.9513 0.90996 28.7797 0.795393 28.5907 0.717387C28.4018 0.63938 28.1993 0.599471 27.9949 0.599949H19.9555C19.7494 0.600907 19.5521 0.683314 19.4066 0.829195C19.261 0.975075 19.1791 1.17259 19.1786 1.37866ZM28.7736 19.2708H26.1797C25.9733 19.2712 25.7755 19.3534 25.6296 19.4994C25.4837 19.6453 25.4015 19.8431 25.401 20.0495V25.495H19.9555C19.7491 25.4954 19.5513 25.5776 19.4054 25.7236C19.2594 25.8695 19.1773 26.0673 19.1768 26.2737V28.8675C19.1773 29.0739 19.2594 29.2717 19.4054 29.4176C19.5513 29.5636 19.7491 29.6458 19.9555 29.6462H27.9949C28.1996 29.6467 28.4024 29.6067 28.5916 29.5285C28.7808 29.4502 28.9526 29.3353 29.0972 29.1904C29.2418 29.0455 29.3563 28.8734 29.4341 28.684C29.5119 28.4946 29.5514 28.2917 29.5505 28.087V20.0476C29.5495 19.8416 29.4671 19.6443 29.3212 19.4987C29.1753 19.3532 28.9778 19.2712 28.7717 19.2708H28.7736ZM10.8796 28.8639V26.2719C10.8792 26.0655 10.797 25.8677 10.651 25.7218C10.5051 25.5758 10.3073 25.4936 10.1009 25.4931H4.65544V20.0476C4.65496 19.8413 4.57277 19.6435 4.42683 19.4975C4.2809 19.3516 4.08311 19.2694 3.87674 19.2689H1.28649C1.08011 19.2694 0.882326 19.3516 0.736394 19.4975C0.590462 19.6435 0.508266 19.8413 0.507786 20.0476V28.087C0.507308 28.2914 0.547217 28.4939 0.625224 28.6829C0.703231 28.8718 0.817797 29.0435 0.962343 29.1881C1.10689 29.3326 1.27857 29.4472 1.46752 29.5252C1.65647 29.6032 1.85897 29.6431 2.06338 29.6426H10.1028C10.3088 29.6417 10.5061 29.5592 10.6517 29.4134C10.7972 29.2675 10.8792 29.07 10.8796 28.8639Z" fill="#414141"/>
</svg>
