<?xml version="1.0" encoding="UTF-8" standalone="no"?><!DOCTYPE svg PUBLIC "-//W3C//DTD SVG 1.1//EN" "http://www.w3.org/Graphics/SVG/1.1/DTD/svg11.dtd"><svg width="100%" height="100%" viewBox="0 0 128 128" version="1.1" xmlns="http://www.w3.org/2000/svg" xmlns:xlink="http://www.w3.org/1999/xlink" xml:space="preserve" xmlns:serif="http://www.serif.com/" style="fill-rule:evenodd;clip-rule:evenodd;stroke-linejoin:round;stroke-miterlimit:2;"><g id="_1" serif:id="1"><rect x="15.658" y="16.665" width="96.684" height="94.67" style="fill:url(#_Radial1);"/><path d="M54.734,64.201l-3.827,0l0,25.138c1.169,0.605 2.579,1.088 3.827,1.531l0,-26.669Zm7.05,-1.611l0,29.65c0.524,0.04 1.33,0.282 1.853,0.282c0.685,0 1.29,0 1.974,-0.04l0,-29.892l-3.827,0Zm21.956,21.029c1.369,-1.45 2.779,-3.183 3.827,-4.875l0,-19.175l-3.827,0l0,24.05Zm-41.937,-17.806l8.822,-10.192l8.38,3.142l17.927,-12.851l9.023,8.54l4.553,-3.625l-0.685,-1.491l-3.787,3.183l-8.903,-8.299l-18.209,13.012l-8.46,-3.263l-9.427,10.635l-5.881,1.37l0,1.37l6.647,-1.531Zm1.853,6.043l-3.827,0l0,7.412c1.047,1.611 2.457,3.142 3.827,4.512l0,-11.924Zm33.034,-16.92l-3.827,0l0,35.813c1.249,-0.443 2.659,-0.967 3.827,-1.611l0,-34.202Z" style="fill:#e2d8ff;fill-rule:nonzero;"/><path d="M22.426,63.799c0,22.962 18.611,41.574 41.574,41.574c22.963,0 41.574,-18.612 41.574,-41.574c0,-22.963 -18.611,-41.575 -41.574,-41.575c-22.963,0 -41.574,18.612 -41.574,41.575Zm4.27,0c0,-20.626 16.718,-37.345 37.304,-37.345c20.586,0 37.304,16.719 37.304,37.345c0,20.626 -16.718,37.344 -37.304,37.344c-20.586,0 -37.304,-16.718 -37.304,-37.344Z" style="fill:#9f7fff;"/></g><defs><radialGradient id="_Radial1" cx="0" cy="0" r="1" gradientUnits="userSpaceOnUse" gradientTransform="matrix(63.1927,0,0,63.3143,54.204,48.2001)"><stop offset="0" style="stop-color:#33284e;stop-opacity:1"/><stop offset="0.77" style="stop-color:#130732;stop-opacity:1"/><stop offset="1" style="stop-color:#130732;stop-opacity:1"/></radialGradient></defs></svg>