<?xml version="1.0" encoding="UTF-8" standalone="no"?><!DOCTYPE svg PUBLIC "-//W3C//DTD SVG 1.1//EN" "http://www.w3.org/Graphics/SVG/1.1/DTD/svg11.dtd"><svg width="100%" height="100%" viewBox="0 0 128 128" version="1.1" xmlns="http://www.w3.org/2000/svg" xmlns:xlink="http://www.w3.org/1999/xlink" xml:space="preserve" xmlns:serif="http://www.serif.com/" style="fill-rule:evenodd;clip-rule:evenodd;stroke-linejoin:round;stroke-miterlimit:2;"><g id="_34" serif:id="34"><path d="M106.7,16l-85.367,0c-2.925,0 -5.333,2.408 -5.333,5.333l0,85.4c0.036,2.901 2.433,5.267 5.333,5.267l46,0l0,-37.127l-12.52,0l0,-14.526l12.467,0l0,-10.667c0,-12.4 7.573,-19.153 18.667,-19.153c3.734,-0.013 7.466,0.177 11.18,0.566l0,12.907l-7.66,0c-6,0 -7.187,2.86 -7.187,7.053l0,9.294l14.387,0l-1.867,14.526l-12.52,0l0,37.127l24.42,0c2.901,-0.018 5.282,-2.399 5.3,-5.3l0,-85.367c0,-2.913 -2.387,-5.315 -5.3,-5.333Z" style="fill:#4267b2;fill-rule:nonzero;"/><path id="f" d="M82.28,112l0,-37.127l12.52,0l1.867,-14.526l-14.387,0l0,-9.26c0,-4.194 1.167,-7.054 7.187,-7.054l7.626,0l0,-12.966c-3.713,-0.39 -7.446,-0.579 -11.18,-0.567c-11.06,0 -18.633,6.753 -18.633,19.153l0,10.667l-12.467,0l0,14.553l12.467,0l0,37.127l15,0Z" style="fill:#fff;fill-rule:nonzero;"/></g></svg>