<?xml version="1.0" encoding="UTF-8" standalone="no"?><!DOCTYPE svg PUBLIC "-//W3C//DTD SVG 1.1//EN" "http://www.w3.org/Graphics/SVG/1.1/DTD/svg11.dtd"><svg width="100%" height="100%" viewBox="0 0 128 128" version="1.1" xmlns="http://www.w3.org/2000/svg" xmlns:xlink="http://www.w3.org/1999/xlink" xml:space="preserve" xmlns:serif="http://www.serif.com/" style="fill-rule:evenodd;clip-rule:evenodd;stroke-linejoin:round;stroke-miterlimit:2;"><path id="_391" serif:id="391" d="M80.033,109.307c7.08,-25.433 4.543,-38.243 -7.893,-40.718c1.911,8.645 4.04,17.509 -5.042,23.491c-4.762,3.132 -8.519,1.942 -16.945,-4.542c-3.885,7.988 -2.568,15.943 -0.784,24.462c-12.089,-2.098 -21.612,-7.11 -26.026,-18.792c-4.556,-10.614 -2.061,-22.939 6.263,-30.946c2.909,-2.953 6.052,-5.666 9.396,-8.113c13.595,-10.211 16.225,-20.108 9.052,-35.456c-0.32,-0.879 -0.581,-1.778 -0.781,-2.693c15.114,2.297 29.408,8.361 41.562,17.635c26.499,21.673 23.305,60.606 -5.95,74.921c-0.99,0.076 -1.956,0.329 -2.852,0.751Z" style="fill:#ee4854;fill-rule:nonzero;"/></svg>