<?xml version="1.0" encoding="UTF-8" standalone="no"?><!DOCTYPE svg PUBLIC "-//W3C//DTD SVG 1.1//EN" "http://www.w3.org/Graphics/SVG/1.1/DTD/svg11.dtd"><svg width="100%" height="100%" viewBox="0 0 128 128" version="1.1" xmlns="http://www.w3.org/2000/svg" xmlns:xlink="http://www.w3.org/1999/xlink" xml:space="preserve" xmlns:serif="http://www.serif.com/" style="fill-rule:evenodd;clip-rule:evenodd;stroke-linejoin:round;stroke-miterlimit:2;"><path id="_384" serif:id="384" d="M110.694,99.004l-18.695,-18.695c-0.844,-0.844 -1.987,-1.313 -3.187,-1.313l-3.057,0c5.175,-6.619 8.251,-14.944 8.251,-24.001c0,-21.546 -17.458,-39.003 -39.003,-39.003c-21.545,0 -39.003,17.457 -39.003,39.003c0,21.545 17.458,39.003 39.003,39.003c9.057,0 17.382,-3.076 24.002,-8.251l0,3.056c0,1.2 0.468,2.344 1.312,3.188l18.695,18.695c1.763,1.763 4.613,1.763 6.357,0l5.307,-5.306c1.762,-1.763 1.762,-4.613 0.018,-6.376Zm-55.691,-20.008c-13.257,0 -24.002,-10.725 -24.002,-24.001c0,-13.258 10.726,-24.002 24.002,-24.002c13.257,0 24.002,10.726 24.002,24.002c0,13.257 -10.726,24.001 -24.002,24.001Z" style="fill:url(#_Linear1);fill-rule:nonzero;"/><defs><linearGradient id="_Linear1" x1="0" y1="0" x2="1" y2="0" gradientUnits="userSpaceOnUse" gradientTransform="matrix(96,0,0,96.0164,16,64)"><stop offset="0" style="stop-color:#ba6eff;stop-opacity:1"/><stop offset="1" style="stop-color:#549ff8;stop-opacity:1"/></linearGradient></defs></svg>